<?xml version="1.0" standalone="no"?><!DOCTYPE svg PUBLIC "-//W3C//DTD SVG 1.1//EN" "http://www.w3.org/Graphics/SVG/1.1/DTD/svg11.dtd"><svg t="1765519691334" class="icon" viewBox="0 0 1024 1024" version="1.1" xmlns="http://www.w3.org/2000/svg" p-id="15795" xmlns:xlink="http://www.w3.org/1999/xlink" width="200" height="200"><path d="M737.28 235.52v-163.84c0-12.288 8.192-20.48 20.48-20.48s20.48 8.192 20.48 20.48v163.84h163.84c12.288 0 20.48 8.192 20.48 20.48s-8.192 20.48-20.48 20.48h-163.84v163.84c0 12.288-8.192 20.48-20.48 20.48s-20.48-8.192-20.48-20.48v-163.84h-163.84c-12.288 0-20.48-8.192-20.48-20.48s8.192-20.48 20.48-20.48h163.84z m-634.88 380.928c0 69.632 163.84 137.216 368.64 137.216s368.64-65.536 368.64-137.216V450.56c0-10.24 8.192-20.48 20.48-20.48s20.48 10.24 20.48 20.48v374.784c0 100.352-180.224 178.176-409.6 178.176s-409.6-77.824-409.6-178.176v-628.736c2.048-102.4 184.32-176.128 409.6-176.128 59.392 0 116.736 6.144 167.936 14.336 10.24 2.048 18.432 12.288 16.384 24.576-2.048 10.24-12.288 18.432-24.576 16.384-49.152-10.24-102.4-14.336-157.696-14.336h-26.624c-63.488 2.048-122.88 10.24-174.08 22.528-104.448 26.624-167.936 71.68-167.936 112.64 0 69.632 163.84 137.216 368.64 137.216 12.288 0 20.48 8.192 20.48 20.48s-8.192 20.48-20.48 20.48c-161.792 0-303.104-38.912-368.64-98.304v129.024c0 69.632 163.84 137.216 368.64 137.216 69.632 0 137.216-8.192 196.608-22.528 10.24-2.048 22.528 4.096 24.576 14.336 2.048 10.24-4.096 22.528-14.336 24.576-61.44 14.336-133.12 22.528-204.8 22.528-161.792 0-303.104-38.912-368.64-98.304v133.12z m0 79.872v129.024c0 65.536 151.552 137.216 368.64 137.216s368.64-71.68 368.64-137.216V696.32c-65.536 59.392-206.848 98.304-368.64 98.304s-303.104-38.912-368.64-98.304z m653.312-57.344c-14.336 0-24.576-12.288-24.576-24.576 0-14.336 12.288-24.576 24.576-24.576 14.336 0 24.576 12.288 24.576 24.576 2.048 12.288-10.24 24.576-24.576 24.576z m0 206.848c-14.336 0-24.576-12.288-24.576-24.576 0-14.336 12.288-24.576 24.576-24.576 14.336 0 24.576 12.288 24.576 24.576 2.048 12.288-10.24 24.576-24.576 24.576z" fill="#bfbfbf" p-id="15796"></path></svg>